<svg width="21" height="20" viewBox="0 0 21 20" fill="none" xmlns="http://www.w3.org/2000/svg">
<path d="M1.98364 5H19.9836M8.73364 9V15M13.2336 9V15M3.10864 5L4.23364 17C4.23364 17.5304 4.4707 18.0391 4.89265 18.4142C5.31461 18.7893 5.88691 19 6.48364 19H15.4836C16.0804 19 16.6527 18.7893 17.0746 18.4142C17.4966 18.0391 17.7336 17.5304 17.7336 17L18.8586 5M7.60864 5V2C7.60864 1.73478 7.72717 1.48043 7.93815 1.29289C8.14913 1.10536 8.43527 1 8.73364 1H13.2336C13.532 1 13.8182 1.10536 14.0291 1.29289C14.2401 1.48043 14.3586 1.73478 14.3586 2V5" stroke="#DC3545" stroke-width="2" stroke-linecap="round" stroke-linejoin="round"/>
</svg>
